<svg width="32" height="45" fill="none" xmlns="http://www.w3.org/2000/svg"><path d="M25.162.478c.275.156.489.399.605.689.116.29.128.609.034.906l-5.075 16.092h9.364c.276 0 .545.079.775.226.23.148.41.358.52.604a1.344 1.344 0 0 1-.269 1.488L8.572 43.857a1.439 1.439 0 0 1-1.735.246 1.385 1.385 0 0 1-.604-.688 1.344 1.344 0 0 1-.034-.905l5.075-16.095H1.91c-.276 0-.545-.079-.775-.226a1.384 1.384 0 0 1-.52-.604 1.344 1.344 0 0 1 .269-1.488L23.428.723a1.439 1.439 0 0 1 1.733-.247v.002ZM5.17 23.665h8.012c.22 0 .438.05.635.147.197.097.367.238.498.41a1.359 1.359 0 0 1 .214 1.222l-3.855 12.218 16.153-16.747h-8.009c-.22 0-.438-.05-.635-.147a1.402 1.402 0 0 1-.498-.41 1.359 1.359 0 0 1-.214-1.222l3.855-12.218L5.17 23.665Z" fill="#8EE3FF"/></svg>