<svg width="40" height="43" fill="none" xmlns="http://www.w3.org/2000/svg"><path d="M16.832 25.49h4.208v-14.7h-4.208v14.7Zm6.312-3.15h4.208v-9.45h-4.208v9.45ZM10.52 21.29h4.208v-8.4H10.52v8.4Zm-4.208 21v-9.03a19.373 19.373 0 0 1-4.654-6.38A18.427 18.427 0 0 1 0 19.19c0-5.25 1.841-9.712 5.523-13.387C9.205 2.128 13.676.29 18.936.29c4.383 0 8.267 1.287 11.651 3.86 3.385 2.573 5.585 5.924 6.6 10.052l2.736 10.763c.175.665.052 1.27-.369 1.812-.42.543-.981.814-1.683.813h-4.208v6.3c0 1.155-.412 2.144-1.237 2.967-.825.824-1.815 1.234-2.97 1.233h-4.209v4.2H21.04v-8.4h8.415v-10.5h5.681l-1.999-8.138c-.806-3.184-2.524-5.774-5.154-7.77-2.63-1.994-5.646-2.992-9.047-2.992-4.068 0-7.54 1.418-10.415 4.253-2.875 2.835-4.313 6.282-4.313 10.342 0 2.1.43 4.095 1.29 5.985.86 1.89 2.078 3.57 3.654 5.04l1.368 1.26v10.92H6.312Z" fill="#8EE3FF"/></svg>