<svg width="47" height="44" fill="none" xmlns="http://www.w3.org/2000/svg"><path d="M35.9 8.606a6.52 6.52 0 0 1-4.56-1.85 6.25 6.25 0 0 1-1.89-4.466m6.45 10.526a6.52 6.52 0 0 0-4.56 1.85 6.25 6.25 0 0 0-1.89 4.466M10.1 8.606a6.52 6.52 0 0 0 4.56-1.85 6.25 6.25 0 0 0 1.89-4.466M10.1 12.816a6.52 6.52 0 0 1 4.56 1.85 6.25 6.25 0 0 1 1.89 4.466m-8.6 19.764h4.86c2.17 0 4.37.224 6.484.649 3.773.759 7.655.843 11.46.248 1.865-.294 3.697-.747 5.357-1.53 1.496-.71 3.33-1.706 4.562-2.823 1.23-1.116 2.511-2.941 3.419-4.369.782-1.225.404-2.726-.83-3.638a4.116 4.116 0 0 0-2.387-.76c-.857 0-1.693.266-2.386.76l-3.885 2.874c-1.505 1.116-3.15 2.14-5.109 2.446-.236.036-.483.07-.741.1m0 0-.237.024m.237-.025c.344-.091.66-.265.918-.505.324-.275.588-.61.778-.986a3.09 3.09 0 0 0-.507-3.507 4.072 4.072 0 0 0-.968-.772c-6.014-3.514-15.373-.838-21.025 3.088m20.804 2.682a1.146 1.146 0 0 1-.237.025m0 0a20.36 20.36 0 0 1-3.9.009M34.64 17.898c1.26-1.233 1.26-3.216 1.26-7.187 0-3.97 0-5.954-1.26-7.187C33.38 2.29 31.355 2.29 27.3 2.29h-8.6c-4.055 0-6.08 0-7.34 1.234C10.1 4.757 10.1 6.74 10.1 10.71s0 5.954 1.26 7.187c1.26 1.234 3.285 1.234 7.34 1.234h8.6c4.055 0 6.08 0 7.34-1.234Zm-9.49-7.187c0 .558-.226 1.094-.63 1.489-.403.395-.95.616-1.52.616-.57 0-1.117-.221-1.52-.616a2.083 2.083 0 0 1-.63-1.489c0-.558.227-1.094.63-1.489.403-.394.95-.616 1.52-.616.57 0 1.117.222 1.52.616.404.395.63.93.63 1.49ZM4.725 25.448c1.781 0 3.225 1.414 3.225 3.158v10.526c0 1.744-1.444 3.158-3.225 3.158-1.781 0-3.225-1.414-3.225-3.158V28.606c0-1.744 1.444-3.158 3.225-3.158Z" stroke="#8EE3FF" stroke-width="3" stroke-linecap="round"/></svg>