<svg width="42" height="38" fill="none" xmlns="http://www.w3.org/2000/svg"><path d="M35.7 6.957h-6.3V4.9c0-1.09-.442-2.136-1.23-2.907A4.246 4.246 0 0 0 25.2.79h-8.4a4.246 4.246 0 0 0-2.97 1.204 4.067 4.067 0 0 0-1.23 2.907v2.056H6.3a6.37 6.37 0 0 0-4.455 1.806A6.101 6.101 0 0 0 0 13.123v18.5c0 1.636.664 3.204 1.845 4.36A6.37 6.37 0 0 0 6.3 37.79h29.4a6.37 6.37 0 0 0 4.455-1.806A6.101 6.101 0 0 0 42 31.624v-18.5a6.101 6.101 0 0 0-1.845-4.361A6.37 6.37 0 0 0 35.7 6.957ZM16.8 4.9h8.4v2.056h-8.4V4.9Zm21 26.722c0 .546-.221 1.068-.615 1.454a2.123 2.123 0 0 1-1.485.602H6.3a2.123 2.123 0 0 1-1.485-.602 2.034 2.034 0 0 1-.615-1.454V21.346h8.4V23.4c0 .545.221 1.068.615 1.454.394.385.928.602 1.485.602s1.091-.217 1.485-.602c.394-.386.615-.909.615-1.454v-2.055h8.4V23.4c0 .545.221 1.068.615 1.454.394.385.928.602 1.485.602s1.091-.217 1.485-.602c.394-.386.615-.909.615-1.454v-2.055h8.4v10.277Zm0-14.389H4.2v-4.11c0-.546.221-1.069.615-1.454a2.123 2.123 0 0 1 1.485-.602h29.4c.557 0 1.091.216 1.485.602.394.385.615.908.615 1.453v4.112Z" fill="#8EE3FF"/></svg>