<svg width="290" height="132" fill="none" xmlns="http://www.w3.org/2000/svg"><path d="M82.974 67.973 94.172 89.11H71.775l11.199-21.136ZM82.974 64.938l11.198-21.175H71.775l11.199 21.175Z" fill="#DFF7FF"/><path d="M95.654 37.614H68.79L50.162 66.052 68.79 95.258h28.407l17.918-29.206h-3.024L95.666 92.184H70.282L53.858 66.052 70.282 40.69h25.372v-3.075Z" fill="#DFF7FF"/><path fill="#DFF7FF" d="M112.09 66.052h14.931v3.074H112.09zM80.734 66.437 69.797 46.069 56.844 66.052l13.438 20.752 10.452-20.367ZM85.176 66.437l10.938-20.368 12.952 19.983-13.438 20.752-10.452-20.367ZM33.71 102.509l11.198 21.136H22.512l11.198-21.136ZM33.71 99.473 44.908 78.3H22.512L33.71 99.473Z"/><path d="M46.39 72.15H19.525L.898 100.588l18.627 29.206h28.407l17.918-29.206h-3.024L46.4 126.72H21.018L4.594 100.588l16.424-25.364H46.39V72.15Z" fill="#DFF7FF"/><path fill="#DFF7FF" d="M62.826 100.588h14.931v3.074H62.826zM31.47 100.972 20.533 80.604 7.58 100.588l13.438 20.751 10.452-20.367ZM35.912 100.972 46.85 80.604l12.952 19.984-13.438 20.751-10.452-20.367ZM135.285 30.899l11.199 21.136h-22.397l11.198-21.136ZM135.285 27.863l11.199-21.175h-22.397l11.198 21.175Z"/><path d="M147.966.54h-26.865l-18.627 28.437 18.627 29.207h28.406l17.918-29.207h-3.024L147.977 55.11h-25.383l-16.425-26.132 16.425-25.363h25.372V.54Z" fill="#DFF7FF"/><path fill="#DFF7FF" d="M164.401 28.977h14.931v3.074h-14.931zM133.046 29.362 122.108 8.994l-12.952 19.983 13.438 20.752 10.452-20.367ZM137.488 29.362l10.937-20.368 12.953 19.983L147.94 49.73l-10.452-20.367ZM188.612 67.973l11.199 21.136h-22.397l11.198-21.136ZM188.612 64.938l11.199-21.175h-22.397l11.198 21.175Z"/><path d="M201.293 37.614h-26.865l-18.627 28.438 18.627 29.206h28.406l17.918-29.206h-3.024l-16.424 26.132h-25.383l-16.425-26.132 16.425-25.363h25.372v-3.075Z" fill="#DFF7FF"/><path fill="#DFF7FF" d="M217.728 66.052h14.931v3.074h-14.931zM186.373 66.437l-10.938-20.368-12.952 19.983 13.438 20.752 10.452-20.367ZM190.815 66.437l10.937-20.368 12.953 19.983-13.438 20.752-10.452-20.367ZM137.825 102.509l11.198 21.136h-22.397l11.199-21.136ZM137.825 99.473 149.023 78.3h-22.397l11.199 21.174Z"/><path d="M150.505 72.15H123.64l-18.627 28.438 18.627 29.206h28.407l17.917-29.206h-3.023l-16.425 26.132h-25.383l-16.424-26.132 16.424-25.364h25.372V72.15Z" fill="#DFF7FF"/><path fill="#DFF7FF" d="M166.941 100.588h14.931v3.074h-14.931zM135.585 100.972l-10.937-20.368-12.953 19.984 13.438 20.751 10.452-20.367ZM140.027 100.972l10.937-20.368 12.953 19.984-13.438 20.751-10.452-20.367ZM194.199 134.517l11.198-21.175h-22.396l11.198 21.175Z"/><path d="M206.879 107.194h-26.865l-18.626 28.437 18.626 29.207h28.407l17.918-29.207h-3.024l-16.424 26.132h-25.384l-16.424-26.132 16.424-25.363h25.372v-3.074Z" fill="#DFF7FF"/><path d="m191.959 136.016-10.937-20.368-12.953 19.983 13.438 20.752 10.452-20.367ZM196.401 136.016l10.938-20.368 12.952 19.983-13.438 20.752-10.452-20.367ZM86.53 135.533l11.198-21.175H75.33l11.198 21.175Z" fill="#DFF7FF"/><path d="M99.21 108.209H72.343l-18.626 28.438 18.626 29.206h28.407l17.918-29.206h-3.024l-16.424 26.132H73.838l-16.425-26.132 16.425-25.363h25.371v-3.075Z" fill="#DFF7FF"/><path d="m84.29 137.032-10.938-20.368L60.4 136.647l13.439 20.752 10.451-20.367ZM88.731 137.032l10.938-20.368 12.953 19.983-13.439 20.752-10.452-20.367ZM244.987 102.509l11.198 21.136h-22.397l11.199-21.136ZM244.987 99.473 256.185 78.3h-22.397l11.199 21.174Z" fill="#DFF7FF"/><path d="M257.667 72.15h-26.865l-18.627 28.438 18.627 29.206h28.407l17.917-29.206h-3.023l-16.425 26.132h-25.383l-16.424-26.132 16.424-25.364h25.372V72.15Z" fill="#DFF7FF"/><path fill="#DFF7FF" d="M274.103 100.588h14.931v3.074h-14.931zM242.747 100.972 231.81 80.604l-12.953 19.984 13.438 20.751 10.452-20.367ZM247.189 100.972l10.937-20.368 12.953 19.984-13.438 20.751-10.452-20.367Z"/></svg>