<svg width="846" height="202" fill="none" xmlns="http://www.w3.org/2000/svg"><path d="m119.057 106.387 40.4 74.066h-80.8l40.4-74.066Z" fill="url(#a)"/><path d="m119.057 95.748 40.4-74.201h-80.8l40.4 74.201Z" fill="url(#b)"/><path d="M164.803 0H67.884L.685 99.653 67.884 202h102.481l64.64-102.347h-10.908l-59.253 91.574H73.271L14.017 99.653l59.254-88.88h91.532V0Z" fill="url(#c)"/><path d="M224.097 99.653h53.867v10.774h-53.867V99.653Z" fill="url(#d)"/><path d="M110.977 101 71.52 29.627 24.79 99.653l48.48 72.72L110.978 101Z" fill="url(#e)"/><path d="m127.003 101 39.457-71.373 46.729 70.026-48.48 72.72L127.003 101Z" fill="url(#f)"/><path d="M336.699 21.547v11.368h-24.623V141.4h-9.355V32.915h-24.622V21.547h58.6Z" fill="url(#g)"/><path d="M358.142 130.031h37.418V141.4h-46.987V21.547h45.482v11.368h-35.913v41.429h31.504v11.369h-31.504v44.318Z" fill="url(#h)"/><path d="M457.162 21.547h11.612l-33.44 58.578 34.945 61.275h-11.935l-34.515-61.276 33.333-58.577Zm-45.483 0h9.247V141.4h-9.247V21.547Z" fill="url(#i)"/><path d="M530.599 21.547h8.602V141.4h-9.462L491.998 41.394V141.4h-8.602V21.547h10l37.203 99.042V21.547Z" fill="url(#j)"/><path d="M611.752 36.77v89.407c0 10.149-2.831 15.223-8.494 15.223h-35.16c-5.663 0-8.495-5.074-8.495-15.223V36.769c0-10.148 2.832-15.222 8.495-15.222h35.16c5.663 0 8.494 5.074 8.494 15.222Zm-9.247 87.288v-85.17c0-2.568-.215-4.174-.645-4.816-.358-.771-1.255-1.157-2.688-1.157h-26.881c-1.434 0-2.365.386-2.795 1.157-.359.642-.538 2.248-.538 4.817v85.169c0 2.569.179 4.239.538 5.01.43.642 1.361.963 2.795.963h26.881c1.433 0 2.33-.321 2.688-.963.43-.771.645-2.441.645-5.01Z" fill="url(#k)"/><path d="M641.54 130.031h34.623V141.4h-43.977V21.547h9.354V130.03Z" fill="url(#l)"/><path d="M741.221 36.77v89.407c0 10.149-2.832 15.223-8.495 15.223h-35.16c-5.663 0-8.494-5.074-8.494-15.223V36.769c0-10.148 2.831-15.222 8.494-15.222h35.16c5.663 0 8.495 5.074 8.495 15.222Zm-9.247 87.288v-85.17c0-2.568-.215-4.174-.645-4.816-.359-.771-1.255-1.157-2.688-1.157H701.76c-1.434 0-2.366.386-2.796 1.157-.358.642-.537 2.248-.537 4.817v85.169c0 2.569.179 4.239.537 5.01.43.642 1.362.963 2.796.963h26.881c1.433 0 2.329-.321 2.688-.963.43-.771.645-2.441.645-5.01Z" fill="url(#m)"/><path d="M813.803 57.772h-9.462V38.89c0-2.57-.215-4.175-.645-4.818-.359-.77-1.255-1.156-2.688-1.156h-27.634c-1.362 0-2.258.386-2.688 1.157-.43.642-.645 2.248-.645 4.817v85.169c0 2.569.215 4.239.645 5.01.43.642 1.326.963 2.688.963h27.741c1.362 0 2.258-.321 2.688-.963.43-.771.646-2.441.646-5.01v-32.95h-18.172V79.739h27.526v46.438c0 10.149-2.831 15.223-8.494 15.223h-36.236c-5.662 0-8.494-5.074-8.494-15.223V36.769c0-10.148 2.832-15.222 8.494-15.222h36.236c5.663 0 8.494 5.074 8.494 15.222v21.003Z" fill="url(#n)"/><path d="M834.237 21.547h9.462V141.4h-9.462V21.547Z" fill="url(#o)"/><path d="m285.384 174.603 5.105 10.594h-2.034l-4.151-8.634-4.192 8.634h-2.013l5.147-10.527-4.94-10.129h2.034l3.964 8.169 3.923-8.169h2.013l-4.856 10.062Z" fill="url(#p)"/><path d="M297.981 171.05h-2.532v10.992c0 .421.042.698.125.831.083.133.256.199.519.199h1.868v2.125h-2.657c-1.093 0-1.64-.874-1.64-2.623V171.05h-1.618v-1.959h1.618v-2.79h1.785v2.79h2.532v1.959Z" fill="url(#q)"/><path d="M304.087 169.091h2.159v2.025h-2.428c-.9 0-1.349.831-1.349 2.491v11.59h-1.785v-16.106h1.785v2.025c.221-1.35.761-2.025 1.618-2.025Z" fill="url(#r)"/><path d="M310.546 183.238h4.566c.249 0 .428-.089.539-.266.111-.177.166-.476.166-.896v-9.864c0-.42-.055-.719-.166-.896-.111-.178-.29-.266-.539-.266h-4.566c-.263 0-.436.066-.519.199-.083.133-.125.41-.125.83v10.129c0 .443.042.731.125.864.083.111.256.166.519.166Zm5.271-14.147h1.785v16.106h-1.785v-1.062c-.18.708-.56 1.062-1.141 1.062h-4.919c-1.093 0-1.64-.874-1.64-2.623v-10.86c0-1.749.547-2.623 1.64-2.623h4.919c.581 0 .961.354 1.141 1.062v-1.062Z" fill="url(#s)"/><path d="M336.683 164.541v1.959h-4.753v18.697h-1.805V166.5h-4.753v-1.959h11.311Z" fill="url(#t)"/><path d="M340.345 175.965h6.143v-3.886c0-.42-.041-.697-.124-.83-.083-.133-.256-.199-.519-.199h-4.857c-.263 0-.436.066-.519.199-.083.133-.124.41-.124.83v3.886Zm-.146-6.874h6.414c1.093 0 1.639.874 1.639 2.623v6.21h-7.907v4.284c0 .443.041.731.124.864.083.111.256.166.519.166h4.794c.277 0 .45-.055.519-.166.083-.133.125-.421.125-.864v-1.56h1.764v1.926c0 1.749-.547 2.623-1.64 2.623h-6.351c-1.093 0-1.639-.874-1.639-2.623v-10.86c0-1.749.546-2.623 1.639-2.623Z" fill="url(#u)"/><path d="M360.626 174.338h-1.785v-2.259c0-.42-.042-.697-.125-.83-.083-.133-.256-.199-.519-.199h-4.4c-.262 0-.435.066-.518.199-.083.133-.125.41-.125.83v10.129c0 .443.042.731.125.864.083.111.256.166.518.166h4.4c.263 0 .436-.055.519-.166.083-.133.125-.421.125-.864v-2.258h1.785v2.624c0 1.749-.547 2.623-1.64 2.623h-5.977c-1.093 0-1.64-.874-1.64-2.623v-10.86c0-1.749.547-2.623 1.64-2.623h5.977c1.093 0 1.64.874 1.64 2.623v2.624Z" fill="url(#v)"/><path d="M366.685 169.091h4.919c1.093 0 1.639.874 1.639 2.623v13.483h-1.785v-13.118c0-.42-.041-.697-.124-.83-.083-.133-.256-.199-.519-.199h-4.566c-.249 0-.429.088-.54.266-.11.177-.166.476-.166.896v1.03h-.021v11.955h-1.784V162.98h1.784v7.273c.153-.775.54-1.162 1.163-1.162Z" fill="url(#w)"/><path d="M379.717 169.091h4.898c1.093 0 1.64.874 1.64 2.623v13.483h-1.785v-13.118c0-.42-.042-.697-.125-.83-.069-.133-.242-.199-.519-.199h-4.545c-.249 0-.429.088-.539.266-.111.177-.166.476-.166.896v1.096h-.021v11.889h-1.785v-16.106h1.785v1.162c.152-.775.539-1.162 1.162-1.162Z" fill="url(#x)"/><path d="M397.357 182.208v-10.129c0-.42-.041-.697-.124-.83-.069-.133-.242-.199-.519-.199h-4.732c-.277 0-.457.066-.54.199-.069.133-.103.41-.103.83v10.129c0 .443.034.731.103.864.083.111.263.166.54.166h4.732c.277 0 .45-.055.519-.166.083-.133.124-.421.124-.864Zm-6.143-13.117h6.268c1.093 0 1.64.874 1.64 2.623v10.86c0 1.749-.547 2.623-1.64 2.623h-6.268c-1.093 0-1.64-.874-1.64-2.623v-10.86c0-1.749.547-2.623 1.64-2.623Z" fill="url(#y)"/><path d="M404.645 185.197h-1.785V162.98h1.785v22.217Z" fill="url(#z)"/><path d="M416.166 182.208v-10.129c0-.42-.041-.697-.124-.83-.07-.133-.243-.199-.519-.199h-4.732c-.277 0-.457.066-.54.199-.069.133-.104.41-.104.83v10.129c0 .443.035.731.104.864.083.111.263.166.54.166h4.732c.276 0 .449-.055.519-.166.083-.133.124-.421.124-.864Zm-6.143-13.117h6.268c1.093 0 1.639.874 1.639 2.623v10.86c0 1.749-.546 2.623-1.639 2.623h-6.268c-1.093 0-1.64-.874-1.64-2.623v-10.86c0-1.749.547-2.623 1.64-2.623Z" fill="url(#A)"/><path d="M423.682 183.238h4.566c.249 0 .429-.089.539-.266.111-.177.166-.476.166-.896v-9.864c0-.42-.055-.719-.166-.896-.11-.178-.29-.266-.539-.266h-4.566c-.263 0-.436.066-.519.199-.083.133-.125.41-.125.83v10.129c0 .443.042.731.125.864.083.111.256.166.519.166Zm7.056 1.528h.021v2.49c0 1.749-.547 2.624-1.64 2.624h-7.513v-1.959h6.725c.263 0 .436-.067.519-.2.083-.132.124-.409.124-.83v-1.76h-.021v-.996c-.18.708-.56 1.062-1.141 1.062h-4.919c-1.093 0-1.64-.874-1.64-2.623v-10.86c0-1.749.547-2.623 1.64-2.623h4.919c.581 0 .961.354 1.141 1.062v-1.062h1.785v15.675Z" fill="url(#B)"/><path d="M436.844 189.88h-1.972v-1.959h1.37c.733 0 1.231-.41 1.494-1.229l.457-1.495h-.623l-4.42-16.106h1.805l3.778 14.147 3.694-14.147h1.805l-4.96 17.933c-.263.974-.567 1.694-.913 2.159-.346.465-.851.697-1.515.697Z" fill="url(#C)"/><path d="M460.059 182.208v-5.413c0-.42-.041-.697-.124-.83-.07-.133-.243-.199-.519-.199h-6.04c-1.093 0-1.64-.875-1.64-2.624v-5.978c0-1.749.547-2.623 1.64-2.623h6.787c1.093 0 1.639.874 1.639 2.623v3.288h-1.826v-2.922c0-.443-.041-.72-.124-.831-.07-.132-.243-.199-.519-.199h-5.127c-.263 0-.436.067-.519.199-.083.111-.124.388-.124.831v5.247c0 .443.041.73.124.863.083.111.256.166.519.166h6.019c1.093 0 1.64.875 1.64 2.624v6.144c0 1.749-.547 2.623-1.64 2.623h-6.807c-1.093 0-1.64-.874-1.64-2.623v-3.288h1.826v2.922c0 .443.042.731.125.864.083.111.256.166.519.166h5.168c.276 0 .449-.055.519-.166.083-.133.124-.421.124-.864Z" fill="url(#D)"/><path d="M472.977 182.208v-10.129c0-.42-.041-.697-.124-.83-.069-.133-.242-.199-.519-.199h-4.732c-.277 0-.457.066-.54.199-.069.133-.103.41-.103.83v10.129c0 .443.034.731.103.864.083.111.263.166.54.166h4.732c.277 0 .45-.055.519-.166.083-.133.124-.421.124-.864Zm-6.143-13.117h6.268c1.093 0 1.64.874 1.64 2.623v10.86c0 1.749-.547 2.623-1.64 2.623h-6.268c-1.093 0-1.64-.874-1.64-2.623v-10.86c0-1.749.547-2.623 1.64-2.623Z" fill="url(#E)"/><path d="M480.265 185.197h-1.785V162.98h1.785v22.217Z" fill="url(#F)"/><path d="M491.703 169.091h1.785v16.106h-1.785v-1.062c-.18.708-.56 1.062-1.141 1.062h-4.919c-1.093 0-1.64-.874-1.64-2.623v-13.483h1.785v13.117c0 .443.042.731.125.864.083.111.256.166.518.166h4.566c.249 0 .429-.089.54-.266.111-.177.166-.476.166-.896v-12.985Z" fill="url(#G)"/><path d="M502.121 171.05h-2.532v10.992c0 .421.041.698.124.831.083.133.256.199.519.199h1.868v2.125h-2.656c-1.094 0-1.64-.874-1.64-2.623V171.05h-1.619v-1.959h1.619v-2.79h1.785v2.79h2.532v1.959Z" fill="url(#H)"/><path d="M506.816 185.197h-1.785v-16.106h1.785v16.106Zm-1.827-19.394v-2.856h1.889v2.856h-1.889Z" fill="url(#I)"/><path d="M518.337 182.208v-10.129c0-.42-.041-.697-.124-.83-.07-.133-.242-.199-.519-.199h-4.732c-.277 0-.457.066-.54.199-.069.133-.104.41-.104.83v10.129c0 .443.035.731.104.864.083.111.263.166.54.166h4.732c.277 0 .449-.055.519-.166.083-.133.124-.421.124-.864Zm-6.143-13.117h6.268c1.093 0 1.639.874 1.639 2.623v10.86c0 1.749-.546 2.623-1.639 2.623h-6.268c-1.093 0-1.64-.874-1.64-2.623v-10.86c0-1.749.547-2.623 1.64-2.623Z" fill="url(#J)"/><path d="M526.579 169.091h4.898c1.093 0 1.64.874 1.64 2.623v13.483h-1.785v-13.118c0-.42-.042-.697-.125-.83-.069-.133-.242-.199-.518-.199h-4.546c-.249 0-.429.088-.539.266-.111.177-.166.476-.166.896v1.096h-.021v11.889h-1.785v-16.106h1.785v1.162c.152-.775.54-1.162 1.162-1.162Z" fill="url(#K)"/><path d="M542.755 164.541h1.826v20.656h-1.826v-20.656Z" fill="url(#L)"/><path d="M555.594 182.242v-3.056c0-.42-.042-.697-.125-.83-.069-.133-.242-.199-.519-.199h-4.794c-1.093 0-1.64-.875-1.64-2.624v-3.819c0-1.749.547-2.623 1.64-2.623h5.521c1.093 0 1.639.874 1.639 2.623v1.727h-1.743v-1.395c0-.443-.042-.719-.125-.83-.083-.133-.256-.199-.519-.199h-4.005c-.277 0-.457.066-.54.199-.069.111-.104.387-.104.83v3.122c0 .443.035.731.104.863.083.111.263.166.54.166h4.794c1.093 0 1.64.875 1.64 2.624v3.753c0 1.749-.547 2.623-1.64 2.623h-5.521c-1.093 0-1.639-.874-1.639-2.623v-1.727h1.764v1.395c0 .42.035.697.104.83.083.133.263.199.539.199h3.985c.277 0 .45-.066.519-.199.083-.133.125-.41.125-.83Z" fill="url(#M)"/><path d="M572.064 185.197h-1.806v-6.675l-5.562-13.981h1.868l4.587 11.557 4.4-11.557h1.847l-5.334 13.981v6.675Z" fill="url(#N)"/><path d="M587.026 182.208v-10.129c0-.42-.042-.697-.125-.83-.069-.133-.242-.199-.519-.199h-4.732c-.277 0-.456.066-.539.199-.07.133-.104.41-.104.83v10.129c0 .443.034.731.104.864.083.111.262.166.539.166h4.732c.277 0 .45-.055.519-.166.083-.133.125-.421.125-.864Zm-6.144-13.117h6.268c1.093 0 1.64.874 1.64 2.623v10.86c0 1.749-.547 2.623-1.64 2.623h-6.268c-1.093 0-1.639-.874-1.639-2.623v-10.86c0-1.749.546-2.623 1.639-2.623Z" fill="url(#O)"/><path d="M599.813 169.091h1.785v16.106h-1.785v-1.062c-.18.708-.561 1.062-1.142 1.062h-4.919c-1.093 0-1.639-.874-1.639-2.623v-13.483h1.785v13.117c0 .443.041.731.124.864.083.111.256.166.519.166h4.566c.249 0 .429-.089.54-.266.11-.177.166-.476.166-.896v-12.985Z" fill="url(#P)"/><path d="M608.736 169.091h2.159v2.025h-2.429c-.899 0-1.349.831-1.349 2.491v11.59h-1.785v-16.106h1.785v2.025c.222-1.35.761-2.025 1.619-2.025Z" fill="url(#Q)"/><path d="M618.876 164.541h8.8c1.093 0 1.64.874 1.64 2.623v6.011c0 1.085-.284 1.661-.851 1.727.567.133.851.676.851 1.628v6.044c0 1.749-.547 2.623-1.64 2.623h-8.8v-20.656Zm8.655 17.701v-5.38c0-.421-.042-.698-.125-.831-.069-.132-.242-.199-.518-.199h-6.185v7.406h6.164c.277 0 .456-.055.539-.166.083-.133.125-.41.125-.83Zm0-9.399v-5.313c0-.443-.042-.72-.125-.831-.069-.132-.242-.199-.518-.199h-6.185v7.373h6.185c.276 0 .449-.056.518-.166.083-.133.125-.421.125-.864Z" fill="url(#R)"/><path d="M634.636 175.965h6.144v-3.886c0-.42-.042-.697-.125-.83-.083-.133-.256-.199-.519-.199h-4.856c-.263 0-.436.066-.519.199-.083.133-.125.41-.125.83v3.886Zm-.145-6.874h6.413c1.093 0 1.64.874 1.64 2.623v6.21h-7.908v4.284c0 .443.042.731.125.864.083.111.256.166.519.166h4.794c.277 0 .45-.055.519-.166.083-.133.125-.421.125-.864v-1.56h1.764v1.926c0 1.749-.547 2.623-1.64 2.623h-6.351c-1.093 0-1.639-.874-1.639-2.623v-10.86c0-1.749.546-2.623 1.639-2.623Z" fill="url(#S)"/><path d="M652.738 182.242v-3.056c0-.42-.041-.697-.124-.83-.069-.133-.242-.199-.519-.199h-4.794c-1.094 0-1.64-.875-1.64-2.624v-3.819c0-1.749.546-2.623 1.64-2.623h5.52c1.093 0 1.64.874 1.64 2.623v1.727h-1.744v-1.395c0-.443-.041-.719-.124-.83-.083-.133-.256-.199-.519-.199h-4.005c-.277 0-.457.066-.54.199-.069.111-.104.387-.104.83v3.122c0 .443.035.731.104.863.083.111.263.166.54.166h4.794c1.093 0 1.639.875 1.639 2.624v3.753c0 1.749-.546 2.623-1.639 2.623h-5.521c-1.093 0-1.64-.874-1.64-2.623v-1.727h1.765v1.395c0 .42.034.697.103.83.083.133.263.199.54.199h3.985c.277 0 .45-.066.519-.199.083-.133.124-.41.124-.83Z" fill="url(#T)"/><path d="M662.725 171.05h-2.532v10.992c0 .421.041.698.124.831.083.133.256.199.519.199h1.868v2.125h-2.657c-1.093 0-1.639-.874-1.639-2.623V171.05h-1.619v-1.959h1.619v-2.79h1.785v2.79h2.532v1.959Z" fill="url(#U)"/><path d="M671.33 164.541h8.8c1.093 0 1.64.874 1.64 2.623v6.011c0 1.085-.284 1.661-.851 1.727.567.133.851.676.851 1.628v6.044c0 1.749-.547 2.623-1.64 2.623h-8.8v-20.656Zm8.655 17.701v-5.38c0-.421-.042-.698-.125-.831-.069-.132-.242-.199-.519-.199h-6.185v7.406h6.164c.277 0 .457-.055.54-.166.083-.133.125-.41.125-.83Zm0-9.399v-5.313c0-.443-.042-.72-.125-.831-.069-.132-.242-.199-.519-.199h-6.185v7.373h6.185c.277 0 .45-.056.519-.166.083-.133.125-.421.125-.864Z" fill="url(#V)"/><path d="M693.005 169.091h1.785v16.106h-1.785v-1.062c-.18.708-.56 1.062-1.141 1.062h-4.919c-1.093 0-1.64-.874-1.64-2.623v-13.483h1.785v13.117c0 .443.042.731.125.864.083.111.256.166.518.166h4.566c.25 0 .429-.089.54-.266.111-.177.166-.476.166-.896v-12.985Z" fill="url(#W)"/><path d="M705.395 182.242v-3.056c0-.42-.042-.697-.125-.83-.069-.133-.242-.199-.519-.199h-4.794c-1.093 0-1.64-.875-1.64-2.624v-3.819c0-1.749.547-2.623 1.64-2.623h5.521c1.093 0 1.639.874 1.639 2.623v1.727h-1.743v-1.395c0-.443-.042-.719-.125-.83-.083-.133-.256-.199-.519-.199h-4.005c-.277 0-.457.066-.54.199-.069.111-.104.387-.104.83v3.122c0 .443.035.731.104.863.083.111.263.166.54.166h4.794c1.093 0 1.64.875 1.64 2.624v3.753c0 1.749-.547 2.623-1.64 2.623h-5.521c-1.093 0-1.639-.874-1.639-2.623v-1.727h1.764v1.395c0 .42.035.697.104.83.083.133.263.199.539.199h3.985c.277 0 .45-.066.519-.199.083-.133.125-.41.125-.83Z" fill="url(#X)"/><path d="M712.475 185.197h-1.784v-16.106h1.784v16.106Zm-1.826-19.394v-2.856h1.889v2.856h-1.889Z" fill="url(#Y)"/><path d="M719.369 169.091h4.898c1.093 0 1.639.874 1.639 2.623v13.483h-1.785v-13.118c0-.42-.041-.697-.124-.83-.069-.133-.242-.199-.519-.199h-4.545c-.249 0-.429.088-.54.266-.11.177-.166.476-.166.896v1.096h-.021v11.889h-1.784v-16.106h1.784v1.162c.153-.775.54-1.162 1.163-1.162Z" fill="url(#Z)"/><path d="M731.011 175.965h6.143v-3.886c0-.42-.041-.697-.124-.83-.083-.133-.256-.199-.519-.199h-4.857c-.263 0-.436.066-.519.199-.083.133-.124.41-.124.83v3.886Zm-.145-6.874h6.413c1.093 0 1.639.874 1.639 2.623v6.21h-7.907v4.284c0 .443.041.731.124.864.083.111.256.166.519.166h4.795c.276 0 .449-.055.518-.166.083-.133.125-.421.125-.864v-1.56h1.764v1.926c0 1.749-.546 2.623-1.639 2.623h-6.351c-1.093 0-1.64-.874-1.64-2.623v-10.86c0-1.749.547-2.623 1.64-2.623Z" fill="url(#aa)"/><path d="M749.113 182.242v-3.056c0-.42-.042-.697-.125-.83-.069-.133-.242-.199-.519-.199h-4.794c-1.093 0-1.64-.875-1.64-2.624v-3.819c0-1.749.547-2.623 1.64-2.623h5.521c1.093 0 1.639.874 1.639 2.623v1.727h-1.743v-1.395c0-.443-.042-.719-.125-.83-.083-.133-.256-.199-.518-.199h-4.006c-.277 0-.457.066-.54.199-.069.111-.103.387-.103.83v3.122c0 .443.034.731.103.863.083.111.263.166.54.166h4.794c1.093 0 1.64.875 1.64 2.624v3.753c0 1.749-.547 2.623-1.64 2.623h-5.52c-1.094 0-1.64-.874-1.64-2.623v-1.727h1.764v1.395c0 .42.035.697.104.83.083.133.263.199.539.199h3.985c.277 0 .45-.066.519-.199.083-.133.125-.41.125-.83Z" fill="url(#ab)"/><path d="M761.071 182.242v-3.056c0-.42-.042-.697-.125-.83-.069-.133-.242-.199-.519-.199h-4.794c-1.093 0-1.639-.875-1.639-2.624v-3.819c0-1.749.546-2.623 1.639-2.623h5.521c1.093 0 1.639.874 1.639 2.623v1.727h-1.743v-1.395c0-.443-.041-.719-.124-.83-.083-.133-.256-.199-.519-.199h-4.006c-.277 0-.457.066-.54.199-.069.111-.103.387-.103.83v3.122c0 .443.034.731.103.863.083.111.263.166.54.166h4.794c1.093 0 1.64.875 1.64 2.624v3.753c0 1.749-.547 2.623-1.64 2.623h-5.52c-1.093 0-1.64-.874-1.64-2.623v-1.727h1.764v1.395c0 .42.035.697.104.83.083.133.263.199.54.199h3.984c.277 0 .45-.066.519-.199.083-.133.125-.41.125-.83Z" fill="url(#ac)"/><path d="M780.779 175.467v-7.937c0-.443-.042-.72-.125-.831-.083-.132-.256-.199-.518-.199h-6.268v9.996h6.268c.262 0 .435-.066.518-.199.083-.133.125-.409.125-.83Zm-8.717-10.926h8.862c1.093 0 1.64.874 1.64 2.623v8.668c0 1.749-.547 2.624-1.64 2.624h-7.056v6.741h-1.806v-20.656Z" fill="url(#ad)"/><path d="M787.898 183.238h4.566c.249 0 .429-.089.54-.266.11-.177.166-.476.166-.896v-9.864c0-.42-.056-.719-.166-.896-.111-.178-.291-.266-.54-.266h-4.566c-.263 0-.436.066-.519.199-.083.133-.124.41-.124.83v10.129c0 .443.041.731.124.864.083.111.256.166.519.166Zm5.272-14.147h1.785v16.106h-1.785v-1.062c-.18.708-.561 1.062-1.142 1.062h-4.919c-1.093 0-1.639-.874-1.639-2.623v-10.86c0-1.749.546-2.623 1.639-2.623h4.919c.581 0 .962.354 1.142 1.062v-1.062Z" fill="url(#ae)"/><path d="M802.093 169.091h2.159v2.025h-2.429c-.899 0-1.349.831-1.349 2.491v11.59h-1.785v-16.106h1.785v2.025c.222-1.35.761-2.025 1.619-2.025Z" fill="url(#af)"/><path d="M811.229 171.05h-2.532v10.992c0 .421.041.698.124.831.083.133.256.199.519.199h1.868v2.125h-2.657c-1.093 0-1.639-.874-1.639-2.623V171.05h-1.619v-1.959h1.619v-2.79h1.785v2.79h2.532v1.959Z" fill="url(#ag)"/><path d="M816.878 169.091h4.898c1.093 0 1.64.874 1.64 2.623v13.483h-1.785v-13.118c0-.42-.042-.697-.125-.83-.069-.133-.242-.199-.518-.199h-4.546c-.249 0-.429.088-.539.266-.111.177-.166.476-.166.896v1.096h-.021v11.889h-1.785v-16.106h1.785v1.162c.152-.775.54-1.162 1.162-1.162Z" fill="url(#ah)"/><path d="M828.52 175.965h6.144v-3.886c0-.42-.042-.697-.125-.83-.083-.133-.256-.199-.519-.199h-4.856c-.263 0-.436.066-.519.199-.083.133-.125.41-.125.83v3.886Zm-.145-6.874h6.413c1.093 0 1.64.874 1.64 2.623v6.21h-7.908v4.284c0 .443.042.731.125.864.083.111.256.166.519.166h4.794c.277 0 .45-.055.519-.166.083-.133.124-.421.124-.864v-1.56h1.765v1.926c0 1.749-.547 2.623-1.64 2.623h-6.351c-1.093 0-1.639-.874-1.639-2.623v-10.86c0-1.749.546-2.623 1.639-2.623Z" fill="url(#ai)"/><path d="M843.156 169.091h2.159v2.025h-2.429c-.899 0-1.349.831-1.349 2.491v11.59h-1.785v-16.106h1.785v2.025c.222-1.35.761-2.025 1.619-2.025Z" fill="url(#aj)"/><defs><linearGradient id="a" x1="53" y1="38" x2="845.5" y2="239" gradientUnits="userSpaceOnUse"><stop stop-color="#003040"/><stop offset=".485" stop-color="#0086B4"/><stop offset="1" stop-color="#002F3F"/></linearGradient><linearGradient id="b" x1="53" y1="38" x2="845.5" y2="239" gradientUnits="userSpaceOnUse"><stop stop-color="#003040"/><stop offset=".485" stop-color="#0086B4"/><stop offset="1" stop-color="#002F3F"/></linearGradient><linearGradient id="c" x1="53" y1="38" x2="845.5" y2="239" gradientUnits="userSpaceOnUse"><stop stop-color="#003040"/><stop offset=".485" stop-color="#0086B4"/><stop offset="1" stop-color="#002F3F"/></linearGradient><linearGradient id="d" x1="53" y1="38" x2="845.5" y2="239" gradientUnits="userSpaceOnUse"><stop stop-color="#003040"/><stop offset=".485" stop-color="#0086B4"/><stop offset="1" stop-color="#002F3F"/></linearGradient><linearGradient id="e" x1="53" y1="38" x2="845.5" y2="239" gradientUnits="userSpaceOnUse"><stop stop-color="#003040"/><stop offset=".485" stop-color="#0086B4"/><stop offset="1" stop-color="#002F3F"/></linearGradient><linearGradient id="f" x1="53" y1="38" x2="845.5" y2="239" gradientUnits="userSpaceOnUse"><stop stop-color="#003040"/><stop offset=".485" stop-color="#0086B4"/><stop offset="1" stop-color="#002F3F"/></linearGradient><linearGradient id="g" x1="53" y1="38" x2="845.5" y2="239" gradientUnits="userSpaceOnUse"><stop stop-color="#003040"/><stop offset=".485" stop-color="#0086B4"/><stop offset="1" stop-color="#002F3F"/></linearGradient><linearGradient id="h" x1="53" y1="38" x2="845.5" y2="239" gradientUnits="userSpaceOnUse"><stop stop-color="#003040"/><stop offset=".485" stop-color="#0086B4"/><stop offset="1" stop-color="#002F3F"/></linearGradient><linearGradient id="i" x1="53" y1="38" x2="845.5" y2="239" gradientUnits="userSpaceOnUse"><stop stop-color="#003040"/><stop offset=".485" stop-color="#0086B4"/><stop offset="1" stop-color="#002F3F"/></linearGradient><linearGradient id="j" x1="53" y1="38" x2="845.5" y2="239" gradientUnits="userSpaceOnUse"><stop stop-color="#003040"/><stop offset=".485" stop-color="#0086B4"/><stop offset="1" stop-color="#002F3F"/></linearGradient><linearGradient id="k" x1="53" y1="38" x2="845.5" y2="239" gradientUnits="userSpaceOnUse"><stop stop-color="#003040"/><stop offset=".485" stop-color="#0086B4"/><stop offset="1" stop-color="#002F3F"/></linearGradient><linearGradient id="l" x1="53" y1="38" x2="845.5" y2="239" gradientUnits="userSpaceOnUse"><stop stop-color="#003040"/><stop offset=".485" stop-color="#0086B4"/><stop offset="1" stop-color="#002F3F"/></linearGradient><linearGradient id="m" x1="53" y1="38" x2="845.5" y2="239" gradientUnits="userSpaceOnUse"><stop stop-color="#003040"/><stop offset=".485" stop-color="#0086B4"/><stop offset="1" stop-color="#002F3F"/></linearGradient><linearGradient id="n" x1="53" y1="38" x2="845.5" y2="239" gradientUnits="userSpaceOnUse"><stop stop-color="#003040"/><stop offset=".485" stop-color="#0086B4"/><stop offset="1" stop-color="#002F3F"/></linearGradient><linearGradient id="o" x1="53" y1="38" x2="845.5" y2="239" gradientUnits="userSpaceOnUse"><stop stop-color="#003040"/><stop offset=".485" stop-color="#0086B4"/><stop offset="1" stop-color="#002F3F"/></linearGradient><linearGradient id="p" x1="53" y1="38" x2="845.5" y2="239" gradientUnits="userSpaceOnUse"><stop stop-color="#003040"/><stop offset=".485" stop-color="#0086B4"/><stop offset="1" stop-color="#002F3F"/></linearGradient><linearGradient id="q" x1="53" y1="38" x2="845.5" y2="239" gradientUnits="userSpaceOnUse"><stop stop-color="#003040"/><stop offset=".485" stop-color="#0086B4"/><stop offset="1" stop-color="#002F3F"/></linearGradient><linearGradient id="r" x1="53" y1="38" x2="845.5" y2="239" gradientUnits="userSpaceOnUse"><stop stop-color="#003040"/><stop offset=".485" stop-color="#0086B4"/><stop offset="1" stop-color="#002F3F"/></linearGradient><linearGradient id="s" x1="53" y1="38" x2="845.5" y2="239" gradientUnits="userSpaceOnUse"><stop stop-color="#003040"/><stop offset=".485" stop-color="#0086B4"/><stop offset="1" stop-color="#002F3F"/></linearGradient><linearGradient id="t" x1="53" y1="38" x2="845.5" y2="239" gradientUnits="userSpaceOnUse"><stop stop-color="#003040"/><stop offset=".485" stop-color="#0086B4"/><stop offset="1" stop-color="#002F3F"/></linearGradient><linearGradient id="u" x1="53" y1="38" x2="845.5" y2="239" gradientUnits="userSpaceOnUse"><stop stop-color="#003040"/><stop offset=".485" stop-color="#0086B4"/><stop offset="1" stop-color="#002F3F"/></linearGradient><linearGradient id="v" x1="53" y1="38" x2="845.5" y2="239" gradientUnits="userSpaceOnUse"><stop stop-color="#003040"/><stop offset=".485" stop-color="#0086B4"/><stop offset="1" stop-color="#002F3F"/></linearGradient><linearGradient id="w" x1="53" y1="38" x2="845.5" y2="239" gradientUnits="userSpaceOnUse"><stop stop-color="#003040"/><stop offset=".485" stop-color="#0086B4"/><stop offset="1" stop-color="#002F3F"/></linearGradient><linearGradient id="x" x1="53" y1="38" x2="845.5" y2="239" gradientUnits="userSpaceOnUse"><stop stop-color="#003040"/><stop offset=".485" stop-color="#0086B4"/><stop offset="1" stop-color="#002F3F"/></linearGradient><linearGradient id="y" x1="53" y1="38" x2="845.5" y2="239" gradientUnits="userSpaceOnUse"><stop stop-color="#003040"/><stop offset=".485" stop-color="#0086B4"/><stop offset="1" stop-color="#002F3F"/></linearGradient><linearGradient id="z" x1="53" y1="38" x2="845.5" y2="239" gradientUnits="userSpaceOnUse"><stop stop-color="#003040"/><stop offset=".485" stop-color="#0086B4"/><stop offset="1" stop-color="#002F3F"/></linearGradient><linearGradient id="A" x1="53" y1="38" x2="845.5" y2="239" gradientUnits="userSpaceOnUse"><stop stop-color="#003040"/><stop offset=".485" stop-color="#0086B4"/><stop offset="1" stop-color="#002F3F"/></linearGradient><linearGradient id="B" x1="53" y1="38" x2="845.5" y2="239" gradientUnits="userSpaceOnUse"><stop stop-color="#003040"/><stop offset=".485" stop-color="#0086B4"/><stop offset="1" stop-color="#002F3F"/></linearGradient><linearGradient id="C" x1="53" y1="38" x2="845.5" y2="239" gradientUnits="userSpaceOnUse"><stop stop-color="#003040"/><stop offset=".485" stop-color="#0086B4"/><stop offset="1" stop-color="#002F3F"/></linearGradient><linearGradient id="D" x1="53" y1="38" x2="845.5" y2="239" gradientUnits="userSpaceOnUse"><stop stop-color="#003040"/><stop offset=".485" stop-color="#0086B4"/><stop offset="1" stop-color="#002F3F"/></linearGradient><linearGradient id="E" x1="53" y1="38" x2="845.5" y2="239" gradientUnits="userSpaceOnUse"><stop stop-color="#003040"/><stop offset=".485" stop-color="#0086B4"/><stop offset="1" stop-color="#002F3F"/></linearGradient><linearGradient id="F" x1="53" y1="38" x2="845.5" y2="239" gradientUnits="userSpaceOnUse"><stop stop-color="#003040"/><stop offset=".485" stop-color="#0086B4"/><stop offset="1" stop-color="#002F3F"/></linearGradient><linearGradient id="G" x1="53" y1="38" x2="845.5" y2="239" gradientUnits="userSpaceOnUse"><stop stop-color="#003040"/><stop offset=".485" stop-color="#0086B4"/><stop offset="1" stop-color="#002F3F"/></linearGradient><linearGradient id="H" x1="53" y1="38" x2="845.5" y2="239" gradientUnits="userSpaceOnUse"><stop stop-color="#003040"/><stop offset=".485" stop-color="#0086B4"/><stop offset="1" stop-color="#002F3F"/></linearGradient><linearGradient id="I" x1="53" y1="38" x2="845.5" y2="239" gradientUnits="userSpaceOnUse"><stop stop-color="#003040"/><stop offset=".485" stop-color="#0086B4"/><stop offset="1" stop-color="#002F3F"/></linearGradient><linearGradient id="J" x1="53" y1="38" x2="845.5" y2="239" gradientUnits="userSpaceOnUse"><stop stop-color="#003040"/><stop offset=".485" stop-color="#0086B4"/><stop offset="1" stop-color="#002F3F"/></linearGradient><linearGradient id="K" x1="53" y1="38" x2="845.5" y2="239" gradientUnits="userSpaceOnUse"><stop stop-color="#003040"/><stop offset=".485" stop-color="#0086B4"/><stop offset="1" stop-color="#002F3F"/></linearGradient><linearGradient id="L" x1="53" y1="38" x2="845.5" y2="239" gradientUnits="userSpaceOnUse"><stop stop-color="#003040"/><stop offset=".485" stop-color="#0086B4"/><stop offset="1" stop-color="#002F3F"/></linearGradient><linearGradient id="M" x1="53" y1="38" x2="845.5" y2="239" gradientUnits="userSpaceOnUse"><stop stop-color="#003040"/><stop offset=".485" stop-color="#0086B4"/><stop offset="1" stop-color="#002F3F"/></linearGradient><linearGradient id="N" x1="53" y1="38" x2="845.5" y2="239" gradientUnits="userSpaceOnUse"><stop stop-color="#003040"/><stop offset=".485" stop-color="#0086B4"/><stop offset="1" stop-color="#002F3F"/></linearGradient><linearGradient id="O" x1="53" y1="38" x2="845.5" y2="239" gradientUnits="userSpaceOnUse"><stop stop-color="#003040"/><stop offset=".485" stop-color="#0086B4"/><stop offset="1" stop-color="#002F3F"/></linearGradient><linearGradient id="P" x1="53" y1="38" x2="845.5" y2="239" gradientUnits="userSpaceOnUse"><stop stop-color="#003040"/><stop offset=".485" stop-color="#0086B4"/><stop offset="1" stop-color="#002F3F"/></linearGradient><linearGradient id="Q" x1="53" y1="38" x2="845.5" y2="239" gradientUnits="userSpaceOnUse"><stop stop-color="#003040"/><stop offset=".485" stop-color="#0086B4"/><stop offset="1" stop-color="#002F3F"/></linearGradient><linearGradient id="R" x1="53" y1="38" x2="845.5" y2="239" gradientUnits="userSpaceOnUse"><stop stop-color="#003040"/><stop offset=".485" stop-color="#0086B4"/><stop offset="1" stop-color="#002F3F"/></linearGradient><linearGradient id="S" x1="53" y1="38" x2="845.5" y2="239" gradientUnits="userSpaceOnUse"><stop stop-color="#003040"/><stop offset=".485" stop-color="#0086B4"/><stop offset="1" stop-color="#002F3F"/></linearGradient><linearGradient id="T" x1="53" y1="38" x2="845.5" y2="239" gradientUnits="userSpaceOnUse"><stop stop-color="#003040"/><stop offset=".485" stop-color="#0086B4"/><stop offset="1" stop-color="#002F3F"/></linearGradient><linearGradient id="U" x1="53" y1="38" x2="845.5" y2="239" gradientUnits="userSpaceOnUse"><stop stop-color="#003040"/><stop offset=".485" stop-color="#0086B4"/><stop offset="1" stop-color="#002F3F"/></linearGradient><linearGradient id="V" x1="53" y1="38" x2="845.5" y2="239" gradientUnits="userSpaceOnUse"><stop stop-color="#003040"/><stop offset=".485" stop-color="#0086B4"/><stop offset="1" stop-color="#002F3F"/></linearGradient><linearGradient id="W" x1="53" y1="38" x2="845.5" y2="239" gradientUnits="userSpaceOnUse"><stop stop-color="#003040"/><stop offset=".485" stop-color="#0086B4"/><stop offset="1" stop-color="#002F3F"/></linearGradient><linearGradient id="X" x1="53" y1="38" x2="845.5" y2="239" gradientUnits="userSpaceOnUse"><stop stop-color="#003040"/><stop offset=".485" stop-color="#0086B4"/><stop offset="1" stop-color="#002F3F"/></linearGradient><linearGradient id="Y" x1="53" y1="38" x2="845.5" y2="239" gradientUnits="userSpaceOnUse"><stop stop-color="#003040"/><stop offset=".485" stop-color="#0086B4"/><stop offset="1" stop-color="#002F3F"/></linearGradient><linearGradient id="Z" x1="53" y1="38" x2="845.5" y2="239" gradientUnits="userSpaceOnUse"><stop stop-color="#003040"/><stop offset=".485" stop-color="#0086B4"/><stop offset="1" stop-color="#002F3F"/></linearGradient><linearGradient id="aa" x1="53" y1="38" x2="845.5" y2="239" gradientUnits="userSpaceOnUse"><stop stop-color="#003040"/><stop offset=".485" stop-color="#0086B4"/><stop offset="1" stop-color="#002F3F"/></linearGradient><linearGradient id="ab" x1="53" y1="38" x2="845.5" y2="239" gradientUnits="userSpaceOnUse"><stop stop-color="#003040"/><stop offset=".485" stop-color="#0086B4"/><stop offset="1" stop-color="#002F3F"/></linearGradient><linearGradient id="ac" x1="53" y1="38" x2="845.5" y2="239" gradientUnits="userSpaceOnUse"><stop stop-color="#003040"/><stop offset=".485" stop-color="#0086B4"/><stop offset="1" stop-color="#002F3F"/></linearGradient><linearGradient id="ad" x1="53" y1="38" x2="845.5" y2="239" gradientUnits="userSpaceOnUse"><stop stop-color="#003040"/><stop offset=".485" stop-color="#0086B4"/><stop offset="1" stop-color="#002F3F"/></linearGradient><linearGradient id="ae" x1="53" y1="38" x2="845.5" y2="239" gradientUnits="userSpaceOnUse"><stop stop-color="#003040"/><stop offset=".485" stop-color="#0086B4"/><stop offset="1" stop-color="#002F3F"/></linearGradient><linearGradient id="af" x1="53" y1="38" x2="845.5" y2="239" gradientUnits="userSpaceOnUse"><stop stop-color="#003040"/><stop offset=".485" stop-color="#0086B4"/><stop offset="1" stop-color="#002F3F"/></linearGradient><linearGradient id="ag" x1="53" y1="38" x2="845.5" y2="239" gradientUnits="userSpaceOnUse"><stop stop-color="#003040"/><stop offset=".485" stop-color="#0086B4"/><stop offset="1" stop-color="#002F3F"/></linearGradient><linearGradient id="ah" x1="53" y1="38" x2="845.5" y2="239" gradientUnits="userSpaceOnUse"><stop stop-color="#003040"/><stop offset=".485" stop-color="#0086B4"/><stop offset="1" stop-color="#002F3F"/></linearGradient><linearGradient id="ai" x1="53" y1="38" x2="845.5" y2="239" gradientUnits="userSpaceOnUse"><stop stop-color="#003040"/><stop offset=".485" stop-color="#0086B4"/><stop offset="1" stop-color="#002F3F"/></linearGradient><linearGradient id="aj" x1="53" y1="38" x2="845.5" y2="239" gradientUnits="userSpaceOnUse"><stop stop-color="#003040"/><stop offset=".485" stop-color="#0086B4"/><stop offset="1" stop-color="#002F3F"/></linearGradient></defs></svg>