<svg width="153" height="113" fill="none" xmlns="http://www.w3.org/2000/svg"><path d="m65.317 59.277 22.292 41.066H43.024l22.293-41.066ZM65.317 53.378l22.292-41.141H43.024l22.293 41.141Z" fill="#8EE3FF"/><path d="M90.559.29h-53.48L0 55.543l37.08 56.747h56.548l35.668-56.747h-6.019l-32.696 50.774H40.052L7.356 55.543l32.696-49.28h50.507V.29Z" fill="#8EE3FF"/><path d="M123.277 55.543H153v5.974h-29.723v-5.974ZM60.858 56.29 39.086 16.717 13.301 55.543l26.751 40.32L60.858 56.29ZM69.7 56.29l21.773-39.573 25.785 38.826-26.751 40.32L69.701 56.29Z" fill="#8EE3FF"/></svg>