<svg width="283" height="206" fill="none" xmlns="http://www.w3.org/2000/svg"><path d="m120.814 108.493 41.234 75.534H79.581l41.233-75.534Z" fill="url(#a)"/><path d="m120.814 97.644 41.234-75.67H79.581l41.233 75.67Z" fill="url(#b)"/><path d="M167.504 0H68.585L0 101.627 68.585 206h104.596l65.974-104.373h-11.133l-60.476 93.386H74.083l-60.476-93.386 60.476-90.64h93.421V0Z" fill="url(#c)"/><path d="M228.022 101.627H283v10.986h-54.978v-10.986Z" fill="url(#d)"/><path d="M112.568 103 72.296 30.213l-47.693 71.414 49.48 74.16L112.568 103Z" fill="url(#e)"/><path d="m128.924 103 40.271-72.787 47.694 71.414-49.481 74.16L128.924 103Z" fill="url(#f)"/><defs><linearGradient id="a" x1="17.529" y1="38.752" x2="298.194" y2="62.14" gradientUnits="userSpaceOnUse"><stop stop-color="#003040"/><stop offset=".485" stop-color="#0086B4"/><stop offset="1" stop-color="#002F3F"/></linearGradient><linearGradient id="b" x1="17.529" y1="38.752" x2="298.194" y2="62.14" gradientUnits="userSpaceOnUse"><stop stop-color="#003040"/><stop offset=".485" stop-color="#0086B4"/><stop offset="1" stop-color="#002F3F"/></linearGradient><linearGradient id="c" x1="17.529" y1="38.752" x2="298.194" y2="62.14" gradientUnits="userSpaceOnUse"><stop stop-color="#003040"/><stop offset=".485" stop-color="#0086B4"/><stop offset="1" stop-color="#002F3F"/></linearGradient><linearGradient id="d" x1="17.529" y1="38.752" x2="298.194" y2="62.14" gradientUnits="userSpaceOnUse"><stop stop-color="#003040"/><stop offset=".485" stop-color="#0086B4"/><stop offset="1" stop-color="#002F3F"/></linearGradient><linearGradient id="e" x1="17.529" y1="38.752" x2="298.194" y2="62.14" gradientUnits="userSpaceOnUse"><stop stop-color="#003040"/><stop offset=".485" stop-color="#0086B4"/><stop offset="1" stop-color="#002F3F"/></linearGradient><linearGradient id="f" x1="17.529" y1="38.752" x2="298.194" y2="62.14" gradientUnits="userSpaceOnUse"><stop stop-color="#003040"/><stop offset=".485" stop-color="#0086B4"/><stop offset="1" stop-color="#002F3F"/></linearGradient></defs></svg>