<svg width="29" height="29" fill="none" xmlns="http://www.w3.org/2000/svg"><path d="M28.743 11.887c.173.973.258 1.96.257 2.947 0 4.411-1.609 8.141-4.408 10.666h.004c-2.448 2.217-5.814 3.5-9.804 3.5-3.923 0-7.685-1.528-10.46-4.247C1.559 22.034 0 18.346 0 14.501c0-3.846 1.558-7.534 4.333-10.253C7.107 1.528 10.869 0 14.793 0a14.377 14.377 0 0 1 9.895 3.773l-4.223 4.14a8.127 8.127 0 0 0-5.673-2.175c-3.859 0-7.137 2.552-8.306 5.988-.62 1.801-.62 3.751 0 5.552h.006c1.174 3.43 4.447 5.983 8.306 5.983 1.993 0 3.705-.5 5.033-1.385h-.006a6.78 6.78 0 0 0 1.939-1.906 6.634 6.634 0 0 0 1.018-2.5h-7.99V11.89l13.951-.002Z" fill="url(#a)"/><defs><linearGradient id="a" x1="5.945" y1="16.965" x2="29" y2="29" gradientUnits="userSpaceOnUse"><stop stop-color="#006789"/><stop offset=".949" stop-color="#008AB9"/></linearGradient></defs></svg>