<svg width="31" height="31" fill="none" xmlns="http://www.w3.org/2000/svg"><path d="M30.039 9.496a10.611 10.611 0 0 0-.681-3.601 7.491 7.491 0 0 0-4.279-4.279 10.735 10.735 0 0 0-3.552-.682c-1.563-.07-2.059-.09-6.027-.09s-4.477 0-6.029.09a10.735 10.735 0 0 0-3.55.682 7.486 7.486 0 0 0-4.279 4.279 10.65 10.65 0 0 0-.68 3.55c-.07 1.565-.092 2.06-.092 6.03 0 3.967 0 4.474.091 6.028.024 1.215.254 2.415.681 3.554a7.49 7.49 0 0 0 4.28 4.277c1.134.444 2.334.691 3.55.731 1.566.07 2.061.091 6.03.091 3.968 0 4.476 0 6.028-.091a10.71 10.71 0 0 0 3.553-.68 7.5 7.5 0 0 0 4.278-4.28c.428-1.137.657-2.336.681-3.553.07-1.564.091-2.06.091-6.03-.003-3.967-.003-4.471-.094-6.026ZM15.49 22.978a7.51 7.51 0 0 1-7.512-7.512 7.51 7.51 0 0 1 12.824-5.312 7.513 7.513 0 0 1-5.312 12.824Zm7.812-13.55a1.75 1.75 0 0 1-.671-3.37 1.75 1.75 0 1 1 .67 3.37Z" fill="url(#a)"/><path d="M15.49 20.346a4.88 4.88 0 1 0 0-9.76 4.88 4.88 0 0 0 0 9.76Z" fill="url(#b)"/><defs><linearGradient id="a" x1="6.869" y1="17.992" x2="30.15" y2="30.124" gradientUnits="userSpaceOnUse"><stop stop-color="#006789"/><stop offset=".949" stop-color="#008AB9"/></linearGradient><linearGradient id="b" x1="6.869" y1="17.992" x2="30.15" y2="30.124" gradientUnits="userSpaceOnUse"><stop stop-color="#006789"/><stop offset=".949" stop-color="#008AB9"/></linearGradient></defs></svg>