<svg width="26" height="25" fill="none" xmlns="http://www.w3.org/2000/svg"><path d="M0 1.79C0 .803.855 0 1.91 0h22.18C25.146 0 26 .802 26 1.79v21.42c0 .988-.855 1.79-1.91 1.79H1.91C.854 25 0 24.198 0 23.21V1.79Zm8.032 19.138V9.64H4.131v11.29h3.901ZM6.082 8.097c1.36 0 2.207-.866 2.207-1.95-.024-1.108-.845-1.95-2.18-1.95-1.336 0-2.209.844-2.209 1.95 0 1.084.847 1.95 2.156 1.95h.026Zm7.976 12.831v-6.305c0-.337.026-.675.13-.915.281-.674.923-1.372 2.002-1.372 1.412 0 1.976 1.034 1.976 2.553v6.04h3.901v-6.476c0-3.469-1.924-5.081-4.491-5.081-2.07 0-2.998 1.094-3.518 1.864v.039h-.026l.026-.04V9.64h-3.9c.049 1.06 0 11.29 0 11.29h3.9Z" fill="url(#a)"/><defs><linearGradient id="a" x1="5.33" y1="14.625" x2="25.645" y2="25.654" gradientUnits="userSpaceOnUse"><stop stop-color="#006789"/><stop offset=".949" stop-color="#008AB9"/></linearGradient></defs></svg>