<svg width="35" height="29" fill="none" xmlns="http://www.w3.org/2000/svg"><path d="M34.498 3.75c-1.252.569-2.6.942-3.998 1.121a6.985 6.985 0 0 0 3.055-3.867 14.041 14.041 0 0 1-4.42 1.706C27.851 1.313 26.047.5 24 .5c-3.819 0-6.939 3.12-6.939 6.971 0 .553.065 1.089.179 1.593a19.816 19.816 0 0 1-14.365-7.28 6.897 6.897 0 0 0-.942 3.494c0 2.42 1.218 4.566 3.103 5.785-1.153 0-2.226-.325-3.168-.813v.049a6.976 6.976 0 0 0 5.59 6.841 6.857 6.857 0 0 1-3.137.114 6.955 6.955 0 0 0 6.5 4.842 13.846 13.846 0 0 1-8.661 2.99c-.553 0-1.105-.032-1.657-.097a19.735 19.735 0 0 0 10.692 3.136c12.805 0 19.841-10.628 19.841-19.841 0-.309 0-.602-.016-.91a13.929 13.929 0 0 0 3.478-3.624Z" fill="url(#a)"/><defs><linearGradient id="a" x1="7.471" y1="16.661" x2="31.816" y2="32.299" gradientUnits="userSpaceOnUse"><stop stop-color="#006789"/><stop offset=".949" stop-color="#008AB9"/></linearGradient></defs></svg>